<?xml version="1.0" encoding="utf-8"?>
<!-- Generator: Adobe Illustrator 16.2.1, SVG Export Plug-In . SVG Version: 6.00 Build 0)  -->
<!DOCTYPE svg PUBLIC "-//W3C//DTD SVG 1.1//EN" "http://www.w3.org/Graphics/SVG/1.1/DTD/svg11.dtd">
<svg version="1.1" id="Layer_1" xmlns="http://www.w3.org/2000/svg" xmlns:xlink="http://www.w3.org/1999/xlink" x="0px" y="0px"
	 width="244.776px" height="70px" viewBox="0 0 244.776 70" enable-background="new 0 0 244.776 70" xml:space="preserve">
<g>
	<g>
		<path fill="#EE6001" d="M102.76,57.247h4.794v12.49h-3.062v-9.481h-0.034l-2.624,9.481H99.35l-2.624-9.481H96.69v9.481h-3.062
			v-12.49h4.792l2.152,8.327h0.033L102.76,57.247z M114.376,64.559h6.12V62.04h-6.12v-2.187h6.699v-2.606h-9.953v12.49h10.128
			v-2.799h-6.874V64.559z M135.491,60.842c0.278,0.764,0.418,1.63,0.418,2.598c0,1.026-0.14,1.931-0.418,2.711
			c-0.282,0.782-0.688,1.438-1.217,1.968c-0.529,0.532-1.175,0.934-1.933,1.208s-1.609,0.411-2.557,0.411h-5.368v-12.49h5.368
			c0.957,0,1.815,0.14,2.573,0.42c0.759,0.279,1.399,0.688,1.924,1.225C134.808,59.428,135.209,60.077,135.491,60.842z
			 M132.655,63.422c0-1.143-0.295-1.991-0.884-2.545s-1.444-0.831-2.562-0.831h-1.538v6.893h1.538
			c0.619-0.012,1.146-0.085,1.584-0.219c0.437-0.135,0.793-0.342,1.068-0.621c0.272-0.28,0.474-0.639,0.602-1.075
			C132.591,64.585,132.655,64.052,132.655,63.422z M139.006,69.737h3.255v-12.49h-3.255V69.737z M152.527,57.247l4.673,12.49h-3.396
			l-0.769-2.239h-4.356l-0.786,2.239h-3.342l4.67-12.49H152.527z M152.268,65.084l-1.384-4.373h-0.034l-1.419,4.373H152.268z
			 M172.558,65.312h2.272c-0.092,0.571-0.394,1.029-0.898,1.373c-0.509,0.344-1.164,0.516-1.969,0.516
			c-0.523,0-0.973-0.104-1.34-0.315c-0.367-0.209-0.666-0.489-0.9-0.839c-0.23-0.35-0.402-0.746-0.507-1.189
			c-0.104-0.442-0.155-0.898-0.155-1.364c0-0.467,0.051-0.922,0.155-1.364c0.104-0.443,0.276-0.84,0.507-1.189
			c0.234-0.351,0.533-0.631,0.9-0.841s0.816-0.313,1.34-0.313c0.663,0,1.227,0.151,1.688,0.453c0.461,0.305,0.72,0.725,0.777,1.26
			h3.255c-0.07-0.781-0.282-1.457-0.639-2.028s-0.797-1.041-1.322-1.408s-1.11-0.639-1.758-0.813s-1.292-0.263-1.932-0.263
			c-0.944,0-1.803,0.17-2.571,0.507c-0.77,0.339-1.427,0.802-1.969,1.392c-0.543,0.589-0.96,1.277-1.252,2.063
			c-0.29,0.787-0.435,1.636-0.435,2.546s0.145,1.759,0.435,2.545c0.292,0.787,0.709,1.476,1.252,2.064
			c0.542,0.59,1.199,1.053,1.969,1.391C170.23,69.83,171.089,70,172.033,70c0.29,0,0.593-0.03,0.909-0.088
			c0.316-0.059,0.628-0.151,0.936-0.28c0.31-0.128,0.606-0.294,0.893-0.498s0.533-0.458,0.743-0.762l0.192,1.365h2.101v-6.84h-5.249
			V65.312z M192.062,69.178c0.071,0.256,0.159,0.442,0.264,0.56h-3.219c-0.07-0.105-0.128-0.251-0.175-0.438
			c-0.048-0.186-0.081-0.381-0.106-0.584c-0.021-0.205-0.039-0.395-0.052-0.569c-0.013-0.176-0.023-0.31-0.034-0.402
			c-0.025-0.315-0.06-0.624-0.106-0.928c-0.048-0.303-0.134-0.577-0.262-0.822s-0.307-0.439-0.533-0.586
			c-0.228-0.145-0.533-0.219-0.918-0.219h-2.469v4.549H181.2v-12.49h6.365c0.551,0,1.086,0.064,1.61,0.192s0.99,0.335,1.401,0.621
			c0.407,0.285,0.736,0.65,0.986,1.094c0.252,0.442,0.376,0.979,0.376,1.609c0,0.676-0.159,1.303-0.479,1.88
			c-0.321,0.577-0.815,0.995-1.479,1.251v0.035c0.327,0.082,0.6,0.228,0.823,0.437c0.222,0.211,0.401,0.455,0.542,0.734
			c0.141,0.28,0.245,0.581,0.316,0.901c0.067,0.322,0.114,0.627,0.139,0.919c0.01,0.128,0.023,0.326,0.036,0.595
			c0.011,0.269,0.034,0.549,0.068,0.84C191.939,68.647,191.995,68.922,192.062,69.178z M188.687,61.201
			c0-0.467-0.16-0.809-0.48-1.024s-0.709-0.323-1.163-0.323h-2.591v2.816h2.729c0.49,0,0.862-0.125,1.119-0.376
			C188.559,62.043,188.687,61.68,188.687,61.201z M206.575,60.946c0.273,0.787,0.41,1.636,0.41,2.546s-0.137,1.759-0.41,2.545
			c-0.275,0.787-0.675,1.476-1.2,2.064c-0.524,0.59-1.17,1.053-1.932,1.391C202.678,69.83,201.807,70,200.827,70
			c-0.979,0-1.852-0.17-2.614-0.508c-0.765-0.338-1.409-0.801-1.936-1.391c-0.524-0.589-0.921-1.277-1.197-2.064
			c-0.275-0.786-0.412-1.635-0.412-2.545s0.137-1.759,0.412-2.546c0.276-0.786,0.673-1.475,1.197-2.063
			c0.526-0.59,1.171-1.053,1.936-1.392c0.763-0.337,1.636-0.507,2.614-0.507c0.979,0,1.851,0.17,2.616,0.507
			c0.762,0.339,1.407,0.802,1.932,1.392C205.9,59.472,206.3,60.16,206.575,60.946z M203.731,63.492c0-0.467-0.052-0.922-0.159-1.364
			c-0.104-0.443-0.272-0.84-0.506-1.189c-0.232-0.351-0.533-0.631-0.9-0.841c-0.368-0.21-0.814-0.313-1.339-0.313
			c-0.525,0-0.97,0.104-1.337,0.313s-0.669,0.49-0.901,0.841c-0.234,0.35-0.403,0.746-0.509,1.189
			c-0.104,0.442-0.157,0.897-0.157,1.364c0,0.466,0.053,0.922,0.157,1.364c0.105,0.443,0.274,0.84,0.509,1.189
			c0.232,0.35,0.534,0.63,0.901,0.839c0.367,0.211,0.812,0.315,1.337,0.315c0.524,0,0.971-0.104,1.339-0.315
			c0.367-0.209,0.668-0.489,0.9-0.839c0.233-0.35,0.402-0.746,0.506-1.189C203.68,64.414,203.731,63.958,203.731,63.492z
			 M217.603,64.769c0,0.806-0.162,1.412-0.491,1.819c-0.324,0.408-0.891,0.612-1.695,0.612s-1.371-0.204-1.695-0.612
			c-0.329-0.407-0.491-1.014-0.491-1.819v-7.521h-3.255v7.33c0,1.807,0.437,3.163,1.303,4.066c0.871,0.904,2.251,1.356,4.139,1.356
			c1.89,0,3.268-0.452,4.139-1.356c0.866-0.903,1.303-2.26,1.303-4.066v-7.33h-3.255V64.769z M234.404,59.398
			c0.252,0.513,0.376,1.138,0.376,1.872c0,0.77-0.104,1.428-0.314,1.978c-0.212,0.547-0.515,0.994-0.909,1.337
			c-0.397,0.344-0.873,0.595-1.425,0.752c-0.555,0.158-1.176,0.237-1.863,0.237h-2.677v4.163h-3.254v-12.49h5.931
			c0.582,0,1.146,0.069,1.688,0.209c0.542,0.142,1.021,0.371,1.44,0.692C233.819,58.468,234.154,58.886,234.404,59.398z
			 M231.525,61.497c0-0.594-0.164-1.018-0.497-1.268c-0.331-0.25-0.75-0.376-1.249-0.376h-2.188v3.201h2.188
			c0.513,0,0.931-0.117,1.259-0.35C231.363,62.472,231.525,62.068,231.525,61.497z M98.117,52.183h8.464V3.204h-8.464v20.223H92.03
			V3.204h-8.396v48.979h8.396V31.821h6.087V52.183z M120.019,52.183h-8.397V8.382c0-2.867,2.309-5.178,5.178-5.178h12.594
			c2.799,0,5.179,2.311,5.179,5.178v1.891v7.836v34.074h-8.468V37.63h-6.085V52.183z M120.019,29.233h6.085V11.602h-6.085V29.233z
			 M138.91,3.204v8.397h11.823l-11.962,40.581h23.088v-8.466h-11.894L161.93,3.204H138.91z M175.364,52.183h-8.396V8.382
			c0-2.867,2.311-5.178,5.179-5.178h12.595c2.8,0,5.178,2.311,5.178,5.178v1.891v7.836v34.074h-8.467V37.63h-6.088V52.183z
			 M175.364,29.233h6.088V11.602h-6.088V29.233z M203.353,52.183h-8.396V3.204h17.772c2.798,0,5.107,2.311,5.107,5.178v18.333
			c0,1.959-1.121,3.777-2.94,4.617l3.501,20.851H210l-3.429-20.361h-3.219V52.183z M203.353,23.427h6.089V11.602h-6.089V23.427z
			 M244.776,8.382v38.623c0,2.799-2.38,5.178-5.179,5.178h-17.771V3.204h17.771C242.396,3.204,244.776,5.515,244.776,8.382z
			 M236.309,11.602h-6.086v32.115h6.086V11.602z M29.626,44.613c0-0.874-0.047-1.617-0.137-2.243
			c-1.132,0.686-2.162,1.525-3.059,2.494c-0.009,0.24-0.013,0.489-0.013,0.747c0,10.669,6.793,10.919,6.793,10.919
			S29.626,56.363,29.626,44.613z M32.99,40.867c-0.627,2.165,1.743,13.01,1.743,13.01s-0.021-11.124,0.657-13.456
			C34.566,40.498,33.767,40.652,32.99,40.867z M47.089,45.611c0-0.259-0.009-0.507-0.017-0.747
			c-0.897-0.969-1.924-1.809-3.057-2.494c-0.087,0.626-0.138,1.369-0.138,2.243c0,11.75-3.584,11.917-3.584,11.917
			S47.089,56.28,47.089,45.611z M40.593,40.888c-0.778-0.22-1.582-0.377-2.408-0.461c0.675,2.34,0.657,13.45,0.657,13.45
			S41.195,43.104,40.593,40.888z M42.116,27.217c-3.676-7.512-0.95-16.688,6.395-20.931c6.3-3.636,14.039-2.516,19.062,2.247
			C60.047-0.228,47.134-2.684,36.765,3.291c-0.003-0.002-0.003-0.004-0.006-0.004C26.386-2.702,13.456-0.245,5.931,8.523
			c5.022-4.766,12.764-5.889,19.063-2.25c7.293,4.209,10.029,13.282,6.481,20.761l2.473,1.428c0.213-0.19,0.448-0.364,0.706-0.514
			c1.679-0.968,3.748-0.647,5.062,0.653L42.116,27.217z M64.557,34.076c-7.294,4.21-16.519,2.044-21.222-4.77l-2.46,1.424
			c0.36,1.729-0.401,3.57-2.016,4.503c-0.318,0.181-0.646,0.317-0.984,0.412v2.786c8.339,0.574,14.929,7.521,14.929,16.007
			c0,7.216-4.771,13.321-11.328,15.335C52.75,67.574,61.255,57.65,61.264,45.737c10.349-5.981,14.679-18.374,10.882-29.262
			C73.748,23.196,70.848,30.445,64.557,34.076z M33.115,33.693c-0.577-0.996-0.694-2.131-0.428-3.164l-2.412-1.393
			c-4.669,6.937-13.977,9.169-21.325,4.926C2.657,30.43-0.24,23.182,1.358,16.46c-3.8,10.89,0.541,23.288,10.894,29.269
			c0.004,11.919,8.512,21.847,19.786,24.046c-6.556-2.015-11.326-8.12-11.326-15.336c0-8.425,6.49-15.33,14.742-15.993v-2.857
			C34.501,35.276,33.657,34.628,33.115,33.693z"/>
	</g>
	<g opacity="0.4">
		<linearGradient id="SVGID_1_" gradientUnits="userSpaceOnUse" x1="122.3877" y1="70" x2="122.3877" y2="0">
			<stop  offset="0" style="stop-color:#FFFFFF;stop-opacity:0.6"/>
			<stop  offset="0.47" style="stop-color:#FFFFFF;stop-opacity:0"/>
			<stop  offset="0.48" style="stop-color:#FFFFFF;stop-opacity:0.42"/>
			<stop  offset="0.82" style="stop-color:#FFFFFF;stop-opacity:0.92"/>
			<stop  offset="1" style="stop-color:#FFFFFF"/>
		</linearGradient>
		<path fill="url(#SVGID_1_)" d="M102.76,57.247h4.794v12.49h-3.062v-9.481h-0.034l-2.624,9.481H99.35l-2.624-9.481H96.69v9.481
			h-3.062v-12.49h4.792l2.152,8.327h0.033L102.76,57.247z M114.376,64.559h6.12V62.04h-6.12v-2.187h6.699v-2.606h-9.953v12.49
			h10.128v-2.799h-6.874V64.559z M135.491,60.842c0.278,0.764,0.418,1.63,0.418,2.598c0,1.026-0.14,1.931-0.418,2.711
			c-0.282,0.782-0.688,1.438-1.217,1.968c-0.529,0.532-1.175,0.934-1.933,1.208s-1.609,0.411-2.557,0.411h-5.368v-12.49h5.368
			c0.957,0,1.815,0.14,2.573,0.42c0.759,0.279,1.399,0.688,1.924,1.225C134.808,59.428,135.209,60.077,135.491,60.842z
			 M132.655,63.422c0-1.143-0.295-1.991-0.884-2.545s-1.444-0.831-2.562-0.831h-1.538v6.893h1.538
			c0.619-0.012,1.146-0.085,1.584-0.219c0.437-0.135,0.793-0.342,1.068-0.621c0.272-0.28,0.474-0.639,0.602-1.075
			C132.591,64.585,132.655,64.052,132.655,63.422z M139.006,69.737h3.255v-12.49h-3.255V69.737z M152.527,57.247l4.673,12.49h-3.396
			l-0.769-2.239h-4.356l-0.786,2.239h-3.342l4.67-12.49H152.527z M152.268,65.084l-1.384-4.373h-0.034l-1.419,4.373H152.268z
			 M172.558,65.312h2.272c-0.092,0.571-0.394,1.029-0.898,1.373c-0.509,0.344-1.164,0.516-1.969,0.516
			c-0.523,0-0.973-0.104-1.34-0.315c-0.367-0.209-0.666-0.489-0.9-0.839c-0.23-0.35-0.402-0.746-0.507-1.189
			c-0.104-0.442-0.155-0.898-0.155-1.364c0-0.467,0.051-0.922,0.155-1.364c0.104-0.443,0.276-0.84,0.507-1.189
			c0.234-0.351,0.533-0.631,0.9-0.841s0.816-0.313,1.34-0.313c0.663,0,1.227,0.151,1.688,0.453c0.461,0.305,0.72,0.725,0.777,1.26
			h3.255c-0.07-0.781-0.282-1.457-0.639-2.028s-0.797-1.041-1.322-1.408s-1.11-0.639-1.758-0.813s-1.292-0.263-1.932-0.263
			c-0.944,0-1.803,0.17-2.571,0.507c-0.77,0.339-1.427,0.802-1.969,1.392c-0.543,0.589-0.96,1.277-1.252,2.063
			c-0.29,0.787-0.435,1.636-0.435,2.546s0.145,1.759,0.435,2.545c0.292,0.787,0.709,1.476,1.252,2.064
			c0.542,0.59,1.199,1.053,1.969,1.391C170.23,69.83,171.089,70,172.033,70c0.29,0,0.593-0.03,0.909-0.088
			c0.316-0.059,0.628-0.151,0.936-0.28c0.31-0.128,0.606-0.294,0.893-0.498s0.533-0.458,0.743-0.762l0.192,1.365h2.101v-6.84h-5.249
			V65.312z M192.062,69.178c0.071,0.256,0.159,0.442,0.264,0.56h-3.219c-0.07-0.105-0.128-0.251-0.175-0.438
			c-0.048-0.186-0.081-0.381-0.106-0.584c-0.021-0.205-0.039-0.395-0.052-0.569c-0.013-0.176-0.023-0.31-0.034-0.402
			c-0.025-0.315-0.06-0.624-0.106-0.928c-0.048-0.303-0.134-0.577-0.262-0.822s-0.307-0.439-0.533-0.586
			c-0.228-0.145-0.533-0.219-0.918-0.219h-2.469v4.549H181.2v-12.49h6.365c0.551,0,1.086,0.064,1.61,0.192s0.99,0.335,1.401,0.621
			c0.407,0.285,0.736,0.65,0.986,1.094c0.252,0.442,0.376,0.979,0.376,1.609c0,0.676-0.159,1.303-0.479,1.88
			c-0.321,0.577-0.815,0.995-1.479,1.251v0.035c0.327,0.082,0.6,0.228,0.823,0.437c0.222,0.211,0.401,0.455,0.542,0.734
			c0.141,0.28,0.245,0.581,0.316,0.901c0.067,0.322,0.114,0.627,0.139,0.919c0.01,0.128,0.023,0.326,0.036,0.595
			c0.011,0.269,0.034,0.549,0.068,0.84C191.939,68.647,191.995,68.922,192.062,69.178z M188.687,61.201
			c0-0.467-0.16-0.809-0.48-1.024s-0.709-0.323-1.163-0.323h-2.591v2.816h2.729c0.49,0,0.862-0.125,1.119-0.376
			C188.559,62.043,188.687,61.68,188.687,61.201z M206.575,60.946c0.273,0.787,0.41,1.636,0.41,2.546s-0.137,1.759-0.41,2.545
			c-0.275,0.787-0.675,1.476-1.2,2.064c-0.524,0.59-1.17,1.053-1.932,1.391C202.678,69.83,201.807,70,200.827,70
			c-0.979,0-1.852-0.17-2.614-0.508c-0.765-0.338-1.409-0.801-1.936-1.391c-0.524-0.589-0.921-1.277-1.197-2.064
			c-0.275-0.786-0.412-1.635-0.412-2.545s0.137-1.759,0.412-2.546c0.276-0.786,0.673-1.475,1.197-2.063
			c0.526-0.59,1.171-1.053,1.936-1.392c0.763-0.337,1.636-0.507,2.614-0.507c0.979,0,1.851,0.17,2.616,0.507
			c0.762,0.339,1.407,0.802,1.932,1.392C205.9,59.472,206.3,60.16,206.575,60.946z M203.731,63.492c0-0.467-0.052-0.922-0.159-1.364
			c-0.104-0.443-0.272-0.84-0.506-1.189c-0.232-0.351-0.533-0.631-0.9-0.841c-0.368-0.21-0.814-0.313-1.339-0.313
			c-0.525,0-0.97,0.104-1.337,0.313s-0.669,0.49-0.901,0.841c-0.234,0.35-0.403,0.746-0.509,1.189
			c-0.104,0.442-0.157,0.897-0.157,1.364c0,0.466,0.053,0.922,0.157,1.364c0.105,0.443,0.274,0.84,0.509,1.189
			c0.232,0.35,0.534,0.63,0.901,0.839c0.367,0.211,0.812,0.315,1.337,0.315c0.524,0,0.971-0.104,1.339-0.315
			c0.367-0.209,0.668-0.489,0.9-0.839c0.233-0.35,0.402-0.746,0.506-1.189C203.68,64.414,203.731,63.958,203.731,63.492z
			 M217.603,64.769c0,0.806-0.162,1.412-0.491,1.819c-0.324,0.408-0.891,0.612-1.695,0.612s-1.371-0.204-1.695-0.612
			c-0.329-0.407-0.491-1.014-0.491-1.819v-7.521h-3.255v7.33c0,1.807,0.437,3.163,1.303,4.066c0.871,0.904,2.251,1.356,4.139,1.356
			c1.89,0,3.268-0.452,4.139-1.356c0.866-0.903,1.303-2.26,1.303-4.066v-7.33h-3.255V64.769z M234.404,59.398
			c0.252,0.513,0.376,1.138,0.376,1.872c0,0.77-0.104,1.428-0.314,1.978c-0.212,0.547-0.515,0.994-0.909,1.337
			c-0.397,0.344-0.873,0.595-1.425,0.752c-0.555,0.158-1.176,0.237-1.863,0.237h-2.677v4.163h-3.254v-12.49h5.931
			c0.582,0,1.146,0.069,1.688,0.209c0.542,0.142,1.021,0.371,1.44,0.692C233.819,58.468,234.154,58.886,234.404,59.398z
			 M231.525,61.497c0-0.594-0.164-1.018-0.497-1.268c-0.331-0.25-0.75-0.376-1.249-0.376h-2.188v3.201h2.188
			c0.513,0,0.931-0.117,1.259-0.35C231.363,62.472,231.525,62.068,231.525,61.497z M98.117,52.183h8.464V3.204h-8.464v20.223H92.03
			V3.204h-8.396v48.979h8.396V31.821h6.087V52.183z M120.019,52.183h-8.397V8.382c0-2.867,2.309-5.178,5.178-5.178h12.594
			c2.799,0,5.179,2.311,5.179,5.178v1.891v7.836v34.074h-8.468V37.63h-6.085V52.183z M120.019,29.233h6.085V11.602h-6.085V29.233z
			 M138.91,3.204v8.397h11.823l-11.962,40.581h23.088v-8.466h-11.894L161.93,3.204H138.91z M175.364,52.183h-8.396V8.382
			c0-2.867,2.311-5.178,5.179-5.178h12.595c2.8,0,5.178,2.311,5.178,5.178v1.891v7.836v34.074h-8.467V37.63h-6.088V52.183z
			 M175.364,29.233h6.088V11.602h-6.088V29.233z M203.353,52.183h-8.396V3.204h17.772c2.798,0,5.107,2.311,5.107,5.178v18.333
			c0,1.959-1.121,3.777-2.94,4.617l3.501,20.851H210l-3.429-20.361h-3.219V52.183z M203.353,23.427h6.089V11.602h-6.089V23.427z
			 M244.776,8.382v38.623c0,2.799-2.38,5.178-5.179,5.178h-17.771V3.204h17.771C242.396,3.204,244.776,5.515,244.776,8.382z
			 M236.309,11.602h-6.086v32.115h6.086V11.602z M29.626,44.613c0-0.874-0.047-1.617-0.137-2.243
			c-1.132,0.686-2.162,1.525-3.059,2.494c-0.009,0.24-0.013,0.489-0.013,0.747c0,10.669,6.793,10.919,6.793,10.919
			S29.626,56.363,29.626,44.613z M32.99,40.867c-0.627,2.165,1.743,13.01,1.743,13.01s-0.021-11.124,0.657-13.456
			C34.566,40.498,33.767,40.652,32.99,40.867z M47.089,45.611c0-0.259-0.009-0.507-0.017-0.747
			c-0.897-0.969-1.924-1.809-3.057-2.494c-0.087,0.626-0.138,1.369-0.138,2.243c0,11.75-3.584,11.917-3.584,11.917
			S47.089,56.28,47.089,45.611z M40.593,40.888c-0.778-0.22-1.582-0.377-2.408-0.461c0.675,2.34,0.657,13.45,0.657,13.45
			S41.195,43.104,40.593,40.888z M42.116,27.217c-3.676-7.512-0.95-16.688,6.395-20.931c6.3-3.636,14.039-2.516,19.062,2.247
			C60.047-0.228,47.134-2.684,36.765,3.291c-0.003-0.002-0.003-0.004-0.006-0.004C26.386-2.702,13.456-0.245,5.931,8.523
			c5.022-4.766,12.764-5.889,19.063-2.25c7.293,4.209,10.029,13.282,6.481,20.761l2.473,1.428c0.213-0.19,0.448-0.364,0.706-0.514
			c1.679-0.968,3.748-0.647,5.062,0.653L42.116,27.217z M64.557,34.076c-7.294,4.21-16.519,2.044-21.222-4.77l-2.46,1.424
			c0.36,1.729-0.401,3.57-2.016,4.503c-0.318,0.181-0.646,0.317-0.984,0.412v2.786c8.339,0.574,14.929,7.521,14.929,16.007
			c0,7.216-4.771,13.321-11.328,15.335C52.75,67.574,61.255,57.65,61.264,45.737c10.349-5.981,14.679-18.374,10.882-29.262
			C73.748,23.196,70.848,30.445,64.557,34.076z M33.115,33.693c-0.577-0.996-0.694-2.131-0.428-3.164l-2.412-1.393
			c-4.669,6.937-13.977,9.169-21.325,4.926C2.657,30.43-0.24,23.182,1.358,16.46c-3.8,10.89,0.541,23.288,10.894,29.269
			c0.004,11.919,8.512,21.847,19.786,24.046c-6.556-2.015-11.326-8.12-11.326-15.336c0-8.425,6.49-15.33,14.742-15.993v-2.857
			C34.501,35.276,33.657,34.628,33.115,33.693z"/>
	</g>
</g>
</svg>
